<svg width="48" height="48" viewBox="0 0 48 48" fill="none" xmlns="http://www.w3.org/2000/svg">
<rect width="48" height="48" rx="24" fill="#5C5470" fill-opacity="0.3"/>
<path d="M14.2222 34C13.8759 34 13.5854 33.8752 13.3508 33.6256C13.1161 33.376 12.9992 33.0675 13 32.7V26.2C13 25.485 13.2396 24.8727 13.7187 24.3631C14.1978 23.8535 14.773 23.5991 15.4444 23.6V18.4C15.4444 17.685 15.684 17.0727 16.1631 16.5631C16.6422 16.0535 17.2175 15.7991 17.8889 15.8H22.7778V13.915C22.4111 13.655 22.1157 13.3408 21.8917 12.9725C21.6676 12.6042 21.5556 12.16 21.5556 11.64C21.5556 11.315 21.6167 10.9952 21.7389 10.6806C21.8611 10.366 22.0444 10.0791 22.2889 9.82L24 8L25.7111 9.82C25.9556 10.08 26.1389 10.3669 26.2611 10.6806C26.3833 10.9943 26.4444 11.3141 26.4444 11.64C26.4444 12.16 26.3324 12.6042 26.1083 12.9725C25.8843 13.3408 25.5889 13.655 25.2222 13.915V15.8H30.1111C30.7833 15.8 31.359 16.0544 31.8381 16.5631C32.3172 17.0718 32.5564 17.6841 32.5556 18.4V23.6C33.2278 23.6 33.8034 23.8548 34.2826 24.3644C34.7617 24.874 35.0008 25.4859 35 26.2V32.7C35 33.0683 34.8827 33.3773 34.648 33.6269C34.4133 33.8765 34.1233 34.0009 33.7778 34H14.2222ZM17.8889 23.6H30.1111V18.4H17.8889V23.6ZM15.4444 31.4H32.5556V26.2H15.4444V31.4Z" fill="#5C5470"/>
</svg>
