<svg width="21" height="21" viewBox="0 0 21 21" fill="none" xmlns="http://www.w3.org/2000/svg">
<path d="M16.75 0.5C17.783 0.5 18.6662 0.866753 19.3997 1.60026C20.1332 2.33377 20.5 3.21701 20.5 4.25V16.75C20.5 17.783 20.1332 18.6662 19.3997 19.3997C18.6662 20.1332 17.783 20.5 16.75 20.5H14.3021V12.7526H16.8932L17.2839 9.73177H14.3021V7.80469C14.3021 7.31858 14.4041 6.95399 14.6081 6.71094C14.8121 6.46788 15.2092 6.34635 15.7995 6.34635L17.388 6.33333V3.63802C16.8411 3.5599 16.0686 3.52083 15.0703 3.52083C13.8898 3.52083 12.9457 3.86806 12.2383 4.5625C11.5308 5.25694 11.1771 6.23785 11.1771 7.50521V9.73177H8.57292V12.7526H11.1771V20.5H4.25C3.21701 20.5 2.33377 20.1332 1.60026 19.3997C0.866753 18.6662 0.5 17.783 0.5 16.75V4.25C0.5 3.21701 0.866753 2.33377 1.60026 1.60026C2.33377 0.866753 3.21701 0.5 4.25 0.5H16.75Z" fill="#5C5470"/>
</svg>
