<svg width="31" height="31" viewBox="0 0 31 31" fill="none" xmlns="http://www.w3.org/2000/svg">
<g clip-path="url(#clip0_40_865)">
<path d="M30.985 15.79C30.985 14.52 30.8796 13.5931 30.6513 12.632H15.8086V18.3644H24.5209C24.3453 19.789 23.3968 21.9344 21.2889 23.376L21.2594 23.5679L25.9524 27.1203L26.2775 27.152C29.2636 24.4573 30.985 20.4927 30.985 15.79Z" fill="#4285F4"/>
<path d="M15.8091 30.8935C20.0774 30.8935 23.6607 29.5204 26.278 27.152L21.2894 23.376C19.9545 24.2857 18.1628 24.9207 15.8091 24.9207C11.6286 24.9207 8.0804 22.2262 6.81557 18.5018L6.63018 18.5172L1.75034 22.2072L1.68652 22.3806C4.28616 27.4265 9.62604 30.8935 15.8091 30.8935Z" fill="#34A853"/>
<path d="M6.81528 18.5018C6.48154 17.5407 6.2884 16.5108 6.2884 15.4468C6.2884 14.3826 6.48154 13.3528 6.79772 12.3917L6.78888 12.187L1.84789 8.43768L1.68623 8.51281C0.614793 10.6067 0 12.9581 0 15.4468C0 17.9354 0.614793 20.2867 1.68623 22.3806L6.81528 18.5018Z" fill="#FBBC05"/>
<path d="M15.8091 5.97271C18.7776 5.97271 20.78 7.2256 21.9218 8.27262L26.3833 4.01616C23.6432 1.52752 20.0774 0 15.8091 0C9.62603 0 4.28616 3.46691 1.68652 8.51281L6.79801 12.3917C8.08039 8.66734 11.6286 5.97271 15.8091 5.97271Z" fill="#EB4335"/>
</g>
<defs>
<clipPath id="clip0_40_865">
<rect width="31" height="31" fill="white"/>
</clipPath>
</defs>
</svg>
