<svg width="48" height="48" viewBox="0 0 48 48" fill="none" xmlns="http://www.w3.org/2000/svg">
<rect width="48" height="48" rx="24" fill="#5C5470" fill-opacity="0.3"/>
<path d="M28.8879 15C26.7231 15 24.8017 15.8326 23.5 17.2637C22.1983 15.8326 20.2769 15 18.1121 15C16.2265 15.0022 14.4189 15.733 13.0856 17.0322C11.7523 18.3313 11.0023 20.0926 11 21.9298C11 29.5254 22.4019 35.5942 22.8869 35.8494C23.0753 35.9482 23.286 36 23.5 36C23.714 36 23.9247 35.9482 24.1131 35.8494C24.5981 35.5942 36 29.5254 36 21.9298C35.9977 20.0926 35.2477 18.3313 33.9144 17.0322C32.5811 15.733 30.7735 15.0022 28.8879 15ZM28.2963 29.9474C26.7955 31.1883 25.1912 32.3052 23.5 33.2864C21.8088 32.3052 20.2045 31.1883 18.7037 29.9474C16.3685 27.9955 13.5862 25.0189 13.5862 21.9298C13.5862 20.7603 14.063 19.6386 14.9118 18.8116C15.7606 17.9846 16.9117 17.5199 18.1121 17.5199C20.0302 17.5199 21.6358 18.5069 22.3028 20.0966C22.3999 20.3283 22.5656 20.5266 22.7788 20.6662C22.9921 20.8058 23.2431 20.8804 23.5 20.8804C23.7569 20.8804 24.0079 20.8058 24.2212 20.6662C24.4344 20.5266 24.6001 20.3283 24.6972 20.0966C25.3642 18.5069 26.9698 17.5199 28.8879 17.5199C30.0883 17.5199 31.2394 17.9846 32.0882 18.8116C32.937 19.6386 33.4138 20.7603 33.4138 21.9298C33.4138 25.0189 30.6315 27.9955 28.2963 29.9474Z" fill="#5C5470"/>
</svg>
