<svg width="102" height="101" viewBox="0 0 102 101" fill="none" xmlns="http://www.w3.org/2000/svg">
<g clip-path="url(#clip0_177_1315)">
<path d="M21.5417 71.5417V79.9583H72.0417V71.5417C72.0417 71.5417 72.0417 54.7083 46.7917 54.7083C21.5417 54.7083 21.5417 71.5417 21.5417 71.5417ZM34.1667 33.6667C34.1667 31.1697 34.9071 28.7288 36.2944 26.6526C37.6816 24.5764 39.6534 22.9582 41.9603 22.0027C44.2672 21.0471 46.8057 20.7971 49.2547 21.2843C51.7037 21.7714 53.9533 22.9738 55.7189 24.7394C57.4845 26.5051 58.6869 28.7546 59.1741 31.2037C59.6612 33.6527 59.4112 36.1911 58.4556 38.498C57.5001 40.805 55.8819 42.7767 53.8057 44.164C51.7296 45.5512 49.2887 46.2917 46.7917 46.2917C43.4433 46.2917 40.2321 44.9615 37.8644 42.5939C35.4968 40.2262 34.1667 37.015 34.1667 33.6667ZM20.7 54.9608C18.3996 57.0831 16.545 59.6423 15.2444 62.4892C13.9438 65.336 13.2233 68.4134 13.125 71.5417V79.9583H0.499996V71.5417C0.499996 71.5417 0.499992 57.0229 20.7 54.9608ZM25.75 21.0417C27.0215 21.0424 28.2851 21.2412 29.4954 21.6308C27.0333 25.1615 25.7133 29.3623 25.7133 33.6667C25.7133 37.971 27.0333 42.1718 29.4954 45.7025C28.2851 46.0921 27.0215 46.2909 25.75 46.2917C22.4016 46.2917 19.1904 44.9615 16.8228 42.5939C14.4551 40.2262 13.125 37.015 13.125 33.6667C13.125 30.3183 14.4551 27.1071 16.8228 24.7394C19.1904 22.3718 22.4016 21.0417 25.75 21.0417ZM67.8333 42.0833H80.4583V29.4583H88.875V42.0833H101.5V50.5H88.875V63.125H80.4583V50.5H67.8333V42.0833Z" fill="#5C5470" fill-opacity="0.5"/>
</g>
<defs>
<clipPath id="clip0_177_1315">
<rect width="101" height="101" fill="white" transform="matrix(-1 0 0 1 101.5 0)"/>
</clipPath>
</defs>
</svg>
