<svg width="48" height="48" viewBox="0 0 48 48" fill="none" xmlns="http://www.w3.org/2000/svg">
<rect width="48" height="48" rx="24" fill="#5C5470" fill-opacity="0.6"/>
<path d="M35 13.0002C31.1829 12.9885 27.2753 13.5709 23.7981 15.0591C24.0382 15.6602 24.24 16.3595 24.4065 17.1381C23.4703 16.4398 22.2993 16.2167 21.2637 16.359C19.1314 17.6572 17.2441 19.3864 15.7535 21.6369C16.9158 21.9911 18.1326 22.6784 19.1141 23.6388C17.6439 23.3172 15.9352 23.3697 14.5382 23.7758C13.9042 25.0857 13.3845 26.5373 13 28.1448C18.9379 26.7445 19.0214 28.3053 15.3413 34.5571C16.1199 35.1331 17.2873 35.1859 18.1972 34.4858C18.4625 24.2323 22.9573 26.8947 24.0072 28.1876C24.6664 26.3343 25.6113 24.4189 26.9093 22.4131C26.1116 21.7435 25.1004 21.2791 23.9654 20.9349C25.1355 20.6949 26.314 20.436 27.3851 20.4226C27.6841 20.4189 27.9746 20.435 28.2544 20.4754C29.065 19.3793 29.9802 18.2558 31.0109 17.098C30.4325 16.8099 29.8356 16.575 29.252 16.4146C30.0424 16.1516 30.8793 16.0338 31.6899 16.0421C31.7826 16.0431 31.8746 16.0465 31.9667 16.0507C32.8926 15.0595 33.901 14.0428 35 13V13.0002ZM31.9667 14.1573C25.9264 17.1431 21.5116 21.5964 18.967 27.2273C20.2313 20.4186 25.5231 15.8599 31.9667 14.1573Z" fill="#5C5470"/>
</svg>
