<svg width="21" height="20" viewBox="0 0 21 20" fill="none" xmlns="http://www.w3.org/2000/svg">
<path fill-rule="evenodd" clip-rule="evenodd" d="M17.9366 0H3.06329C1.65492 0 0.5 1.15496 0.5 2.56338V17.4366C0.5 18.8451 1.65492 20 3.06329 20H17.9366C19.345 20 20.5 18.8451 20.5 17.4366V2.56338C20.5 1.15496 19.345 0 17.9366 0ZM15.8088 7.31971C15.8134 7.43611 15.8157 7.55259 15.8157 7.66908C15.8157 8.20454 15.7525 8.75196 15.6298 9.29554C14.9358 12.373 12.3048 15.3384 8.02379 15.3384C6.47821 15.3384 5.03842 14.8925 3.82517 14.1272C4.04238 14.1527 4.26091 14.1654 4.47963 14.1653C5.7625 14.1653 6.94296 13.735 7.8805 13.0107C6.68208 12.9896 5.6715 12.21 5.32254 11.1392C5.49013 11.1706 5.66138 11.1885 5.83729 11.1885C6.08863 11.1885 6.32929 11.1548 6.56008 11.0934C5.6375 10.9095 4.89058 10.2714 4.55642 9.42571C4.43625 9.12313 4.37496 8.79425 4.37496 8.44888V8.41492C4.74996 8.61721 5.16117 8.7385 5.60933 8.75271C4.87521 8.26904 4.38813 7.44354 4.38813 6.50904C4.38813 6.01512 4.52229 5.55192 4.75717 5.15342C6.1075 6.78438 8.12446 7.85804 10.4004 7.97083C10.3538 7.76935 10.3302 7.56322 10.33 7.35642C10.33 5.86771 11.5556 4.66063 13.0683 4.66063C13.8563 4.66063 14.5676 4.98733 15.0659 5.5115C15.6788 5.39335 16.2672 5.17183 16.8059 4.85642C16.6005 5.48683 16.1675 6.01513 15.6015 6.34854C16.156 6.28342 16.6831 6.13892 17.174 5.92496C16.808 6.46513 16.3429 6.94 15.8088 7.31971Z" fill="white"/>
</svg>
